<svg xmlns="http://www.w3.org/2000/svg" width="758.278" height="639.789" viewBox="0 0 758.278 639.789">
  <g id="Group_9914" data-name="Group 9914" transform="translate(0 0.001)">
    <path id="Path_6643" data-name="Path 6643" d="M746.07,360.97q0,13.485-1.134,26.7-.893,10.313-2.437,20.441-1.641,10.723-4.021,21.189v.008q-1.556,6.887-3.418,13.662a304.252,304.252,0,0,1-13.4,38.534q-1.737,4.089-3.586,8.122a304.438,304.438,0,0,1-15.648,29.7,310.016,310.016,0,0,1-59.787,72.251q-3.812,3.389-7.728,6.666a307.515,307.515,0,0,1-197.623,71.511C266.745,669.755,128.5,531.51,128.5,360.97S266.745,52.185,437.284,52.185a307.423,307.423,0,0,1,192,66.944q3.836,3.04,7.575,6.216a310.991,310.991,0,0,1,33.958,33.613h.008A307.583,307.583,0,0,1,746.07,360.97Z" transform="translate(-128.499 -52.185)" fill="#f2f2f2"/>
    <path id="Path_6644" data-name="Path 6644" d="M229.924,481.973c-29.415-17.507-51.617-50.226-48.735-84.335a157.716,157.716,0,0,0,99.176,43.467c14.331.847,30.359.3,40.909,10.034,6.564,6.059,9.62,15.18,10.121,24.1s-1.286,17.79-3.063,26.545l.612,2.145C294.712,504.056,259.339,499.481,229.924,481.973Z" transform="translate(-138.771 -119.85)" fill="#4ad679"/>
    <path id="Path_6645" data-name="Path 6645" d="M181.775,397.478a134.8,134.8,0,0,0,56.03,61.153,58.051,58.051,0,0,0,16.912,6.693,33.3,33.3,0,0,0,17.468-1.384c5.254-1.772,10.424-4.193,16.017-4.657a20.387,20.387,0,0,1,15.643,5.77c5.247,4.875,8.43,11.344,11.322,17.778,3.211,7.144,6.434,14.616,12.592,19.754.746.622-.263,1.744-1.008,1.122-10.713-8.939-12.462-23.908-21.025-34.436-4-4.912-9.5-8.65-16.031-8.552-5.714.086-11.047,2.578-16.351,4.418a35.529,35.529,0,0,1-17.03,1.99,53.667,53.667,0,0,1-17.107-6.018,130.783,130.783,0,0,1-32.566-24.7,137.2,137.2,0,0,1-26.3-38.466c-.4-.881,1.037-1.335,1.437-.46Z" transform="translate(-138.639 -119.726)" fill="#fff"/>
    <path id="Path_6646" data-name="Path 6646" d="M235.3,468.307a20.225,20.225,0,0,1-25.585,5.594c-.855-.459-.182-1.81.674-1.35a18.728,18.728,0,0,0,23.789-5.252c.585-.775,1.7.238,1.122,1.008Z" transform="translate(-144.329 -133.44)" fill="#fff"/>
    <path id="Path_6647" data-name="Path 6647" d="M288.04,475.4a38.982,38.982,0,0,0-13.573-24.957c-.744-.625.266-1.747,1.008-1.122a40.548,40.548,0,0,1,14.071,26c.119.965-1.389,1.041-1.507.08Z" transform="translate(-157.039 -129.937)" fill="#fff"/>
    <path id="Path_6648" data-name="Path 6648" d="M201.794,428.5a11.448,11.448,0,0,0,3.851-10.158c-.131-.964,1.377-1.038,1.507-.08a12.829,12.829,0,0,1-4.236,11.246.78.78,0,0,1-1.065.057A.758.758,0,0,1,201.794,428.5Z" transform="translate(-142.818 -123.756)" fill="#fff"/>
    <path id="Path_6649" data-name="Path 6649" d="M294.823,315.46c.1.6.2,1.2.308,1.8a150.773,150.773,0,0,0,6.044,23.7c.2.6.4,1.206.616,1.8a158.945,158.945,0,0,0,29.418,50.586,154.365,154.365,0,0,0,16.64,16.526c8.228,7.014,17.708,13.963,22.984,23.019a26.484,26.484,0,0,1,1.5,2.912L349.93,486.919c-.109.091-.207.187-.317.278l-.8,2.082c-.326-.24-.658-.5-.984-.737-.189-.139-.374-.289-.563-.428-.125-.1-.249-.193-.367-.272-.042-.032-.083-.064-.113-.091-.118-.08-.219-.166-.326-.24q-2.794-2.142-5.567-4.331c-.012-.005-.012-.005-.018-.022-14.06-11.155-27.311-23.581-38.256-37.624-.329-.423-.67-.85-.989-1.3a147.279,147.279,0,0,1-13.067-20.174,130.2,130.2,0,0,1-5.6-11.924,108.278,108.278,0,0,1-7.71-32.965c-1.643-22.576,3.953-45.425,18.454-62.426C294.074,316.314,294.44,315.89,294.823,315.46Z" transform="translate(-157.189 -103.753)" fill="#4ad679"/>
    <path id="Path_6650" data-name="Path 6650" d="M299.272,315.713a134.805,134.805,0,0,0,7.919,82.561,58.053,58.053,0,0,0,9.474,15.526,33.3,33.3,0,0,0,14.781,9.412c5.262,1.749,10.847,2.928,15.593,5.925a20.387,20.387,0,0,1,9.016,14.025c1.255,7.051-.1,14.133-1.664,21.012-1.737,7.638-3.662,15.544-1.839,23.353.221.946-1.26,1.234-1.481.289-3.172-13.587,4.445-26.592,3.945-40.154-.233-6.328-2.374-12.624-7.651-16.479-4.614-3.371-10.373-4.592-15.716-6.317a35.53,35.53,0,0,1-14.8-8.664,53.667,53.667,0,0,1-10.036-15.1,130.786,130.786,0,0,1-11.128-39.332,137.2,137.2,0,0,1,2.158-46.55c.209-.946,1.632-.442,1.424.5Z" transform="translate(-161.04 -103.606)" fill="#fff"/>
    <path id="Path_6651" data-name="Path 6651" d="M299.317,405.552a20.225,20.225,0,0,1-23.8-10.938c-.407-.881.944-1.555,1.351-.672a18.728,18.728,0,0,0,22.156,10.129c.933-.267,1.217,1.216.289,1.481Z" transform="translate(-157.282 -119.045)" fill="#fff"/>
    <path id="Path_6652" data-name="Path 6652" d="M336.923,441.92a38.982,38.982,0,0,0,4.189-28.1c-.218-.947,1.263-1.235,1.481-.289a40.547,40.547,0,0,1-4.418,29.23C337.688,443.6,336.439,442.757,336.923,441.92Z" transform="translate(-169.302 -122.849)" fill="#fff"/>
    <path id="Path_6653" data-name="Path 6653" d="M295.775,353.12a11.449,11.449,0,0,0,9.191-5.791c.476-.848,1.724,0,1.251.843a12.829,12.829,0,0,1-10.153,6.429.78.78,0,0,1-.885-.6.758.758,0,0,1,.6-.885Z" transform="translate(-161.145 -109.927)" fill="#fff"/>
    <path id="Path_6654" data-name="Path 6654" d="M385.293,141.065,423.087,583.49,347.5,589.173V146.694C356.506,140.735,369.436,139.8,385.293,141.065Z" transform="translate(-171.395 -69.498)" fill="#ccc"/>
    <path id="Path_6655" data-name="Path 6655" d="M617.293,141.065,579.5,583.49l75.588,5.683V146.694C646.08,140.735,633.151,139.8,617.293,141.065Z" transform="translate(-216.838 -69.498)" fill="#ccc"/>
    <path id="Path_6656" data-name="Path 6656" d="M597.348,606.992H357.034A14.551,14.551,0,0,1,342.5,592.457V152.72a14.551,14.551,0,0,1,14.534-14.534H597.348a14.551,14.551,0,0,1,14.534,14.534V592.457A14.551,14.551,0,0,1,597.348,606.992ZM357.034,143.01a9.72,9.72,0,0,0-9.71,9.71V592.457a9.721,9.721,0,0,0,9.71,9.71H597.348a9.721,9.721,0,0,0,9.71-9.71V152.72a9.72,9.72,0,0,0-9.71-9.71Z" transform="translate(-170.416 -69.03)" fill="#ccc"/>
    <rect id="Rectangle_708" data-name="Rectangle 708" width="264.558" height="4.825" transform="translate(174.496 142.331)" fill="#ccc"/>
    <rect id="Rectangle_709" data-name="Rectangle 709" width="264.558" height="4.825" transform="translate(174.496 222.743)" fill="#ccc"/>
    <rect id="Rectangle_710" data-name="Rectangle 710" width="4.825" height="219.527" transform="translate(255.523 71.567)" fill="#ccc"/>
    <rect id="Rectangle_711" data-name="Rectangle 711" width="4.825" height="219.527" transform="translate(353.202 71.567)" fill="#ccc"/>
    <path id="Path_6657" data-name="Path 6657" d="M629.537,727.108H312.71a21.711,21.711,0,1,1,0-43.423H629.537a21.711,21.711,0,1,1,0,43.423Z" transform="translate(-160.329 -175.878)" fill="#ccc"/>
    <rect id="Rectangle_712" data-name="Rectangle 712" width="262.95" height="16.083" transform="translate(176.104 279.837)" fill="#ccc"/>
    <path id="Path_6658" data-name="Path 6658" d="M433.371,447.157l-.334-.161c-17.925-8.659-41.4-8.651-76.113.028l-.371.093-.111-.366c-3.672-12.041-7.832-25.679-.017-32.389.11-19.689,17.381-35.677,38.595-35.677s38.478,15.98,38.594,35.664c11.626,8.889,6.085,22.024-.055,32.489Z" transform="translate(-172.275 -116.137)" fill="#2f2e41"/>
    <path id="Path_6659" data-name="Path 6659" d="M569.747,408.123a11.133,11.133,0,0,1-14.994,8.159l-63.347,63.659-5.652-19.766,62.916-59.116a11.193,11.193,0,0,1,21.078,7.064Z" transform="translate(-198.475 -119.264)" fill="#ffb6b6"/>
    <path id="Path_6660" data-name="Path 6660" d="M395.226,474.926s-5.747,13.024,8.434,21.056,63.745-3.065,71.788-4.614,38.08-46.5,38.08-46.5l-4.247-22.045L469.444,457.4Z" transform="translate(-180.518 -124.783)" fill="#6c63ff"/>
    <path id="Path_6661" data-name="Path 6661" d="M382.4,577.11l.8,15.278s-2.373,13.534-.421,16.455,54.8,3.273,54.8,3.273,3.493-18.83,6.5-35.311Z" transform="translate(-178.156 -154.944)" fill="#ffb6b6"/>
    <path id="Path_6662" data-name="Path 6662" d="M440.962,764.8l11.052-2.232-3.163-44.64-16.311,3.294Z" transform="translate(-84.722 -140.622)" fill="#ffb6b6"/>
    <path id="Path_6663" data-name="Path 6663" d="M458.263,692.449l10.274-4.62-13.328-42.712-15.164,6.819Z" transform="translate(-86.192 -126.36)" fill="#ffb6b6"/>
    <path id="Path_6664" data-name="Path 6664" d="M555.726,699.2l-19.346,10.954-47.71-76.667c-33.493,22.565-66.245,33.371-99.262,39.137-11.163,1.988-22.544.98-24.687-10.381q-.15-.8-.24-1.6c-1.318-12.41,14.119-28.317,16.082-43.5l42.249-2.536,5.21,6.68,48.86-30.039a20.974,20.974,0,0,1,28.865,7.3q.484.8.9,1.635Z" transform="translate(-174.706 -157.178)" fill="#2f2e41"/>
    <path id="Path_6665" data-name="Path 6665" d="M541.882,756.4l-22.136,2.057-40.137-82.086c-39.8,6.845-77.349,9.038-109.827.757a20.993,20.993,0,0,1-15.013-25.36q.19-.788.439-1.56c3.887-11.859,14.062-20.25,22.078-33.294l58.554.889-6.54,22.566L486.181,633A20.974,20.974,0,0,1,509.515,651.5q.115.926.15,1.86Z" transform="translate(-172.702 -162.799)" fill="#2f2e41"/>
    <circle id="Ellipse_133" data-name="Ellipse 133" cx="23.776" cy="23.776" r="23.776" transform="translate(203.335 271.797)" fill="#ffb6b6"/>
    <path id="Path_6666" data-name="Path 6666" d="M389,460l21.8,2.565a4.449,4.449,0,0,1,3.826,3.468l3.467,15.865,21.612,25.451s7.761,14.551,4.85,31.043-4.189,28.746-4.189,28.746-57.975,21.737-59.915,18.826-2.57-16.129-2.57-16.129l-7.761-86.339s8.731-14.551,13.582-14.551C386.833,468.836,386.432,461.791,389,460Z" transform="translate(-175.826 -132.064)" fill="#6c63ff"/>
    <ellipse id="Ellipse_134" data-name="Ellipse 134" cx="5.535" cy="6.643" rx="5.535" ry="6.643" transform="translate(259.594 427.094)" fill="#6c63ff"/>
    <path id="Path_6667" data-name="Path 6667" d="M564.693,812.056l16.849-8.444,3.176,7.408,21.307,4.307a5.035,5.035,0,0,1,.986,9.563l-20.586,8.824-6.69-5.807,1.756,7.922-7.762,3.327Z" transform="translate(-213.937 -199.369)" fill="#2f2e41"/>
    <path id="Path_6668" data-name="Path 6668" d="M585.2,749.615l16.7-8.739,3.305,7.352,21.379,3.932a5.035,5.035,0,0,1,1.154,9.544l-20.428,9.185-6.791-5.689,1.895,7.89-7.7,3.463Z" transform="translate(-217.955 -187.08)" fill="#2f2e41"/>
    <path id="Path_6669" data-name="Path 6669" d="M389.722,403.469a30.427,30.427,0,0,1-17.551-5.537l-.172-.12V397.6a22.944,22.944,0,0,1,22.918-22.918h9.65A22.944,22.944,0,0,1,427.485,397.6a5.336,5.336,0,0,1-5.219,5.31l-32,.552C390.083,403.468,389.9,403.469,389.722,403.469Z" transform="translate(-176.194 -115.354)" fill="#2f2e41"/>
    <ellipse id="Ellipse_135" data-name="Ellipse 135" cx="6.433" cy="8.845" rx="6.433" ry="8.845" transform="translate(238.483 265.745) rotate(-30)" fill="#2f2e41"/>
    <ellipse id="Ellipse_136" data-name="Ellipse 136" cx="8.845" cy="6.433" rx="8.845" ry="6.433" transform="translate(189.426 270.284) rotate(-45)" fill="#2f2e41"/>
    <path id="Path_6670" data-name="Path 6670" d="M636.753,662.185H613.021a3.675,3.675,0,0,0-2.813,1.3,5.628,5.628,0,1,0,1.452,10.593l1.968,6.4a3.708,3.708,0,0,0,3.544,2.618H632.6a3.708,3.708,0,0,0,3.544-2.618l4.151-13.491a3.708,3.708,0,0,0-3.544-4.8Zm-27.547,10.856a4.021,4.021,0,0,1,0-8.041c.073,0,.142.018.214.022a3.669,3.669,0,0,0,.056,1.963l1.7,5.52a3.969,3.969,0,0,1-1.969.537Z" transform="translate(-221.551 -171.667)" fill="#3f3d56"/>
    <path id="Path_6671" data-name="Path 6671" d="M490.819,624.517A11.133,11.133,0,0,1,478.7,612.494l-79.157-42.419,17.314-11.086L491.538,602.3a11.193,11.193,0,0,1-.719,22.218Z" transform="translate(-181.589 -151.454)" fill="#ffb6b6"/>
    <path id="Path_6672" data-name="Path 6672" d="M379.77,475.818s-14.126-1.769-17.751,14.121,21.226,60.186,25.017,67.445,55.471,23.137,55.471,23.137l19.9-10.394-44.557-28.24Z" transform="translate(-174.169 -135.151)" fill="#6c63ff"/>
    <path id="Path_6673" data-name="Path 6673" d="M377.345,342h4.825a8.845,8.845,0,0,1,8.845,8.845H368.5A8.845,8.845,0,0,1,377.345,342Z" transform="translate(-72.179 -66.988)" fill="#ccc"/>
    <circle id="Ellipse_137" data-name="Ellipse 137" cx="47.799" cy="47.799" r="47.799" transform="translate(104.376 14.379)" fill="#ff6584"/>
    <path id="Path_6674" data-name="Path 6674" d="M461.832,117.63c-12.65-13.27-27.341-25.376-44.733-31.773a71.9,71.9,0,0,0-14.983-3.765c-.041-.006-.08,0-.121,0a2.214,2.214,0,0,0-.253-.05,57.677,57.677,0,0,0-21.408,1.292,59.153,59.153,0,0,0-9.968,3.473,87.165,87.165,0,0,0-9.353,5.3,60.835,60.835,0,0,1-20.668,7.71,69.532,69.532,0,0,1-11.1,1.089,26.813,26.813,0,0,0-9.339,1.344,22.415,22.415,0,0,0-13.651,14.781,1.453,1.453,0,0,0,.646,1.588c.828.593,1.635,1.266,2.505,1.794a7.816,7.816,0,0,0,2.447.667q2.075.438,4.155.85,7.663,1.518,15.389,2.688,15.634,2.367,31.437,3.334a350.04,350.04,0,0,0,63.273-1.9,351.242,351.242,0,0,0,35.1-6.072,1.419,1.419,0,0,0,.621-2.35Z" transform="translate(-163.308 -57.943)" fill="#e6e6e6"/>
    <path id="Path_6675" data-name="Path 6675" d="M293.552,165.113a71.9,71.9,0,0,0-14.983-3.765c-.041-.006-.08,0-.121,0a2.208,2.208,0,0,0-.253-.05,57.676,57.676,0,0,0-21.408,1.292,59.146,59.146,0,0,0-9.968,3.472,87.165,87.165,0,0,0-9.353,5.3,60.834,60.834,0,0,1-20.668,7.71,69.533,69.533,0,0,1-11.1,1.09,26.813,26.813,0,0,0-9.339,1.344,22.415,22.415,0,0,0-13.65,14.78,1.453,1.453,0,0,0,.646,1.588c.828.593,1.635,1.266,2.505,1.794a7.815,7.815,0,0,0,2.447.667q2.075.438,4.155.85,7.663,1.518,15.389,2.688,15.634,2.367,31.437,3.334a350.041,350.041,0,0,0,63.273-1.9,351.252,351.252,0,0,0,35.1-6.072,1.419,1.419,0,0,0,.62-2.35C325.636,183.616,310.945,171.51,293.552,165.113Z" transform="translate(-139.109 -73.467)" fill="#e6e6e6"/>
    <path id="Path_6676" data-name="Path 6676" d="M604.7,545.337l-36.758-48.289-29,16.4,61.46,72.984Z" transform="translate(-105.564 -97.358)" fill="#3f3d56"/>
    <path id="Path_6677" data-name="Path 6677" d="M828.905,484.991a264.824,264.824,0,0,0,9.344,59.835q-1.737,4.089-3.586,8.122a304.45,304.45,0,0,1-15.648,29.7A310.025,310.025,0,0,1,759.228,654.9q-3.812,3.389-7.728,6.666c-14.884-20.521-22.918-43.166-26.094-66.469-.4-2.959-.732-5.951-.981-8.926v-.016a190.4,190.4,0,0,1-.587-21.744c.008-.579.024-1.166.048-1.753.281-7.752.981-15.52,2.034-23.215v-.008c.121-.885.241-1.769.378-2.654.386-2.654.82-5.307,1.295-7.945a321.819,321.819,0,0,1,11.531-44.862v-.008c.137-.426.273-.844.426-1.262.531-1.592,1.07-3.168,1.624-4.744a2.784,2.784,0,0,1,.129-.362q1.073-3.088,2.2-6.127.3-.844.627-1.689c.844-2.26,1.7-4.5,2.581-6.714.273-.708.555-1.415.836-2.115.217-.539.426-1.078.651-1.608v-.008q1.918-4.74,3.884-9.3c3.675-8.54,7.454-16.573,11.137-23.979l.008-.008c15.286-30.661,29.182-50.572,29.182-50.572l52.18,16.887c-6.224,11.041-11.041,27.324-13.678,46.535a259.782,259.782,0,0,0-2,46.077Z" transform="translate(-245.092 -115.511)" fill="#3f3d56"/>
    <path id="Path_6678" data-name="Path 6678" d="M720.745,499.86c-.306-.716-.651-1.415-1.005-2.115a39.609,39.609,0,0,0-7-9.65c-.418-.426-.852-.852-1.3-1.254a39.175,39.175,0,0,0-36.572-9.055l-.032.016-.241.064.056.273a22.741,22.741,0,0,0,1.045,3.739c.121.33.257.643.394.957.056.145.129.273.193.418,0,0-.008.008.008.008,0,.008.008.016.008.024.153.3.3.6.458.893-.33-.314-.643-.635-.949-.965-.3-.306-.571-.627-.844-.949a26.645,26.645,0,0,1-2.533-3.49l-.129-.217-.225.088a39.491,39.491,0,0,0-8.62,4.222l-.29.193a17.532,17.532,0,0,1-14.08,2.3,27.918,27.918,0,0,0-22.186,3.627,27.579,27.579,0,0,0-5.774,5.034c-.145.169-.29.346-.434.515-.306.37-.6.748-.877,1.134a27.552,27.552,0,0,0-5.364,13.855l-.016.185.153.1a23.894,23.894,0,0,0,9.038,3.763,27.044,27.044,0,0,1-6.144.153h-.008a24.869,24.869,0,0,1-2.766-.386l-.169-.032h-.008l-.209-.04.032.386a27.663,27.663,0,0,0,4.479,13.791l.08.113a1.118,1.118,0,0,1,.08.129,28.94,28.94,0,0,1,2.831,5.557,26.47,26.47,0,0,1,1.19,15.206A27.746,27.746,0,0,0,648,582.331c.667.056,1.343.088,2.018.088a27.724,27.724,0,0,0,11.234-2.34l.129-.048.032-.145a27.21,27.21,0,0,1,2.847-6.256,18.96,18.96,0,0,0-.6,4.72v.531l.458-.265c.394-.233.8-.482,1.158-.716a28.326,28.326,0,0,0,5.846-5.082c.668-.772,1.343-1.52,2.051-2.268l.008-.008c1.375-1.464,2.831-2.895,4.342-4.262a81.192,81.192,0,0,1,10.293-7.856,88.7,88.7,0,0,1,11.362-6.176h.008c.442-.209.893-.41,1.335-.6a39.206,39.206,0,0,0,5.637-3.024c.064-.04.121-.072.177-.113a39.235,39.235,0,0,0,14.41-48.65Z" transform="translate(-223.658 -135.293)" fill="#4ad679"/>
    <path id="Path_6679" data-name="Path 6679" d="M626.337,576.8a27.735,27.735,0,0,0-.5,2.962,28.089,28.089,0,0,1-.629-14.616c.167-.741.293-1.49.391-2.244A26.359,26.359,0,0,1,626.337,576.8Z" transform="translate(-225.658 -152.22)" opacity="0.15"/>
    <path id="Path_6680" data-name="Path 6680" d="M625.39,535.924a27.047,27.047,0,0,1-7.182.034,27.81,27.81,0,0,1-1.614-3.654,23.567,23.567,0,0,0,8.8,3.62Z" transform="translate(-224.103 -146.227)" opacity="0.15"/>
    <path id="Path_6681" data-name="Path 6681" d="M617.622,522.378a27.952,27.952,0,0,0-1.738,7,27.629,27.629,0,0,1-1.288-7.051l-.02-.386.379.074a26.894,26.894,0,0,0,2.667.363Z" transform="translate(-223.708 -144.197)" opacity="0.15"/>
    <path id="Path_6682" data-name="Path 6682" d="M627.178,488.691a27.848,27.848,0,0,1,22.173-3.631,17.5,17.5,0,0,0,14.088-2.3l.29-.191a39.377,39.377,0,0,1,8.616-4.232l.232-.08.127.209a26.629,26.629,0,0,0,4.323,5.408,20.427,20.427,0,0,1-2.105-6.039l-.055-.278.274-.073a39.178,39.178,0,0,1,49.145,39.965,39.185,39.185,0,0,0-48.018-28.311l-.274.073.055.278a20.423,20.423,0,0,0,2.105,6.039,26.635,26.635,0,0,1-4.323-5.408l-.127-.209-.232.08a39.369,39.369,0,0,0-8.616,4.232l-.29.191a17.5,17.5,0,0,1-14.088,2.3,27.788,27.788,0,0,0-32,14.817,33.665,33.665,0,0,1-3.613-2.019l-.158-.1.019-.185a27.676,27.676,0,0,1,12.456-20.536Z" transform="translate(-223.733 -135.235)" opacity="0.15"/>
    <path id="Path_6683" data-name="Path 6683" d="M922.093,212.984l-.764-.507-.555.724a65.808,65.808,0,0,0-10.124,17.924,85.842,85.842,0,0,1,3.876-21.945l.241-.748-.692-.394A126.8,126.8,0,0,0,885.529,196.2l-1.086-.289a56.338,56.338,0,0,1-35.5-29.174,89.554,89.554,0,0,0-89.6-48.642h-.008c-.193.016-.394.04-.587.064-.33.032-.651.072-.973.113-.659.088-1.3.177-1.946.273-.547.08-1.1.169-1.648.265-.289.04-.571.088-.852.145s-.571.1-.852.153h-.008a88.656,88.656,0,0,0-15.809,4.543h-.008v.008l-1.295.507q-2,.82-3.972,1.737c-.3.137-.587.281-.885.418-.08.04-.169.08-.249.129-.844.4-1.681.82-2.509,1.262-.121.056-.241.121-.362.185l-.772.41q-2.545,1.375-5,2.919c-.137.08-.265.161-.4.249s-.3.193-.442.289c-.089.048-.177.113-.265.169-.249.153-.491.314-.732.482-.482.314-.965.635-1.439.965-.491.33-.973.675-1.456,1.021l-.482.346.089.6c.08.49.153.981.241,1.464s.161.957.249,1.431c.137.8.29,1.584.442,2.348.1.507.2,1.005.314,1.5q.157.76.338,1.52c.233,1.045.482,2.059.748,3.056.129.5.265,1,.41,1.488.08.3.161.6.249.885l.193.6c.016.064.032.137.056.209a1.876,1.876,0,0,0,.064.2q.132.446.265.868c.048.153.1.306.153.45.113.346.233.7.354,1.037.129.386.265.772.4,1.15.032.1.064.185.1.281.024.072.048.145.08.217s.064.169.1.249c.137.362.273.732.418,1.094.048.129.1.265.153.394a57.612,57.612,0,0,0,4.785,9.408q-3.124-2.678-6.015-5.677a86.561,86.561,0,0,1-8.2-9.9c-.2-.273-.4-.555-.587-.836-.378-.539-.748-1.078-1.11-1.624-.386-.563-.756-1.15-1.118-1.729-.241-.386-.482-.78-.716-1.166-.233-.37-.45-.732-.659-1.1l-.627-1.078h-.008v.008l-.885.868c-.354.346-.708.692-1.053,1.037a89.365,89.365,0,0,0-22.733,39.121l-.121.442-.121.458c-.233.82-.466,1.616-.716,2.428v.008c-.241.8-.5,1.608-.772,2.4-.249.748-.507,1.488-.78,2.227q-.133.374-.289.748c-.169.482-.354.957-.539,1.439-.089.217-.177.442-.265.659-.217.531-.434,1.061-.651,1.584-.032.08-.072.169-.113.249-.064.161-.137.322-.2.474-.169.386-.346.78-.515,1.166-.121.249-.233.507-.346.756-.048.113-.1.225-.153.338-.3.643-.6,1.279-.925,1.906-.362.74-.732,1.48-1.126,2.2-.346.675-.708,1.335-1.086,1.994-.651,1.166-1.335,2.324-2.042,3.45-.273.434-.547.868-.828,1.3-.064.1-.129.209-.193.306-.233.378-.474.74-.724,1.11-.169.249-.338.5-.507.74-.281.434-.579.852-.884,1.262-.08.129-.169.249-.257.37-.45.627-.9,1.238-1.359,1.85-.016.008-.016.016-.024.024s-.016.008-.024.016c-.2.265-.4.531-.611.788-.273.378-.571.748-.868,1.11-.482.611-.989,1.23-1.5,1.833-.016.016-.024.032-.04.04a85.668,85.668,0,0,1-8.636,8.781c-.056.048-.1.1-.153.137-.434.378-.868.756-1.319,1.126l-.555.458c-.305.257-.619.515-.925.748a.637.637,0,0,1-.121.1c-.273.225-.539.434-.812.643-.33.265-.659.515-1,.764q-2.388,1.809-4.905,3.418c-.249.169-.515.338-.772.5-.153.1-.306.193-.45.273-.611.378-1.222.748-1.833,1.1s-1.238.708-1.857,1.045c-1.327.724-2.638,1.48-3.916,2.268-.643.4-1.287.8-1.922,1.214q-3.787,2.461-7.293,5.267A89.075,89.075,0,0,0,621.1,252.6q-.4.386-.8.8c-.531.523-1.045,1.053-1.536,1.584-.788.812-1.544,1.648-2.292,2.493a90.384,90.384,0,0,0-10.422,14.49,85.191,85.191,0,0,0-4.085,7.953c-.925,2.034-1.769,4.117-2.533,6.224q-.76,2.111-1.423,4.262c-.217.716-.426,1.439-.627,2.163-.684,2.453-1.254,4.929-1.721,7.414q-.567,2.991-.917,5.991c-.121,1.005-.217,2.01-.306,3.007q-.311,3.676-.317,7.36a89.516,89.516,0,0,0,2.665,21.854q.591,2.364,1.311,4.7c.241.78.5,1.552.756,2.324q.977,2.895,2.163,5.733.712,1.7,1.5,3.377a89.754,89.754,0,0,0,12.609,19.749q1.242,1.484,2.565,2.919c.008,0,0,.008,0,.008a89.186,89.186,0,0,0,6.94,6.787h.008q1.459,1.291,2.967,2.5c.008-.008.008,0,.008,0,1.013.82,2.034,1.608,3.08,2.372q.784.567,1.592,1.134,1.58,1.122,3.225,2.163h.008q1.64,1.061,3.329,2.026c2.26,1.295,4.576,2.509,6.956,3.611l.4.185.41-.185a88.015,88.015,0,0,1,11.772-4.318c.885-.257,1.777-.491,2.662-.716q3.353-.832,6.755-1.4a55.553,55.553,0,0,0-6.385,3.755c-1.584,1.069-3.144,2.235-4.712,3.522-.523.426-1.045.868-1.568,1.319l-1.3,1.126,1.632.539c.6.193,1.19.386,1.785.563.812.257,1.616.49,2.4.708q2.581.724,5.195,1.279l1.271.265c.828.161,1.665.322,2.5.466a.55.55,0,0,0,.1.016c.868.145,1.745.281,2.613.4q2.424.35,4.849.555c.177.024.354.032.539.04.394.032.78.064,1.174.088.868.056,1.745.1,2.621.129.064,0,.121.008.185.008.442.016.884.032,1.327.04,0,0,0,.008.008,0,.442.008.884.016,1.327.016h2.445c.458,0,.917.008,1.383.008.643,0,1.295.008,1.938.016.169,0,.346.008.523.008,1.029.016,2.059.04,3.088.064.064,0,.129.008.193.008,1.029.032,2.059.064,3.088.113.225.008.45.016.684.032q1.484.06,2.967.145c.281.016.571.04.86.056.748.04,1.5.088,2.251.145.442.024.877.056,1.319.1,1.785.137,3.562.289,5.347.466.6.048,1.19.113,1.785.177q2.388.253,4.793.555c.716.08,1.431.177,2.147.273.08.008.161.016.241.032.885.121,1.761.241,2.646.37.579.08,1.158.169,1.737.257.6.088,1.19.177,1.785.281.322.048.643.1.973.161.772.121,1.552.249,2.332.394a1.878,1.878,0,0,1,.209.032c1.656.289,3.321.6,4.977.925.973.185,1.938.378,2.9.579.756.153,1.512.314,2.268.474.129.024.257.056.386.088a.413.413,0,0,0,.089.016c1.142.249,2.292.507,3.434.78q5.946,1.375,11.877,3.056c.909.249,1.817.515,2.726.78.386.113.764.225,1.142.338.788.233,1.568.466,2.356.716.691.209,1.391.426,2.083.651.434.137.869.273,1.3.418.676.209,1.351.426,2.018.659.571.177,1.134.362,1.7.563.8.265,1.616.539,2.42.828.233.08.474.161.708.249.981.338,1.962.684,2.943,1.045.957.346,1.914.7,2.863,1.053.659.249,1.319.49,1.97.748.732.281,1.464.563,2.187.852,1.045.41,2.1.828,3.144,1.254.965.386,1.922.78,2.887,1.19.177.072.362.145.539.225.836.346,1.673.708,2.5,1.069.539.225,1.07.458,1.6.692q3.474,1.52,6.94,3.144h.008c1.447.683,2.919,1.335,4.4,1.954.346.145.692.289,1.045.426.587.249,1.182.482,1.777.724.386.153.772.306,1.166.45.571.225,1.15.442,1.729.651.611.225,1.214.45,1.833.659.217.08.434.153.659.233.716.241,1.431.482,2.155.716.072.024.145.048.225.072.756.241,1.512.482,2.276.708a1.587,1.587,0,0,0,.185.056c.82.249,1.656.491,2.485.724,1.222.338,2.453.659,3.683.957.225.056.45.113.676.161.659.161,1.311.314,1.97.458.7.161,1.407.306,2.107.45s1.415.289,2.115.418c.378.072.756.145,1.126.209l.989.169c.683.121,1.367.225,2.059.338a.156.156,0,0,1,.056.008c.78.121,1.552.233,2.332.33.748.1,1.5.193,2.244.281l.474.048c.619.072,1.238.145,1.858.2l.531.048c.611.056,1.222.113,1.833.153a2.866,2.866,0,0,0,.37.024c.547.048,1.094.088,1.64.113.386.032.764.048,1.15.072l.6.024c.531.032,1.061.048,1.6.064.651.024,1.3.04,1.946.056.78.016,1.568.024,2.348.024h.016c.764,0,1.536-.008,2.3-.024h.29l.844-.024c.434-.008.868-.024,1.295-.04.82-.032,1.632-.072,2.445-.121.322-.016.651-.04.973-.056.145-.008.3-.024.442-.032.507-.032,1.005-.064,1.512-.1.523-.04,1.053-.088,1.576-.145.675-.064,1.351-.137,2.026-.209.531-.056,1.061-.121,1.584-.185a1.641,1.641,0,0,0,.209-.032c.507-.056,1.013-.121,1.512-.193.6-.08,1.182-.169,1.769-.257l.185-.024c1.013-.161,2.034-.322,3.056-.507,1.069-.193,2.139-.4,3.2-.619.394-.08.78-.169,1.174-.249.217-.048.442-.088.651-.137.33-.072.651-.145.973-.225.056-.008.121-.024.177-.032.45-.1.892-.209,1.343-.322.9-.217,1.785-.442,2.67-.684.394-.1.788-.2,1.166-.306.113-.032.225-.064.33-.1q2.449-.688,4.857-1.455c.708-.225,1.407-.458,2.107-.708q2.255-.772,4.471-1.624c.394-.145.788-.306,1.182-.458.579-.233,1.158-.466,1.729-.7.515-.217,1.029-.434,1.552-.659.257-.1.515-.217.772-.33.772-.338,1.544-.684,2.308-1.029.515-.241,1.021-.474,1.528-.716.8-.386,1.6-.78,2.4-1.174.2-.1.394-.209.587-.306.507-.257,1.013-.523,1.528-.78.812-.434,1.624-.868,2.429-1.319.273-.145.539-.3.812-.45q1.327-.748,2.63-1.52,2.883-1.725,5.685-3.6c.466-.306.933-.627,1.391-.941.868-.6,1.721-1.206,2.573-1.817.088-.064.169-.129.257-.185.426-.314.852-.627,1.279-.949.885-.667,1.761-1.343,2.638-2.034.016-.008.04-.032.064-.048.394-.314.788-.627,1.174-.941,1.2-.973,2.38-1.962,3.538-2.983.571-.491,1.134-1,1.689-1.5.418-.378.836-.756,1.246-1.142.828-.78,1.64-1.552,2.445-2.34.4-.386.8-.788,1.2-1.19s.8-.8,1.19-1.214c.137-.137.273-.281.41-.426.4-.426.8-.86,1.206-1.287.346-.37.683-.756,1.029-1.142.579-.643,1.166-1.287,1.737-1.938a1.228,1.228,0,0,1,.1-.1c.032-.04.064-.072.088-.1h-.008a126.193,126.193,0,0,0-25.145-187.338Z" transform="translate(-219.702 -64.992)" fill="#4ad679"/>
    <g id="Group_9913" data-name="Group 9913" transform="translate(374.41 53.098)" opacity="0.15">
      <path id="Path_6684" data-name="Path 6684" d="M797.9,118.217a63.2,63.2,0,0,0,7.163,16.34,86.991,86.991,0,0,1-14.026-15.318Q794.446,118.594,797.9,118.217Z" transform="translate(-632.682 -118.217)"/>
      <path id="Path_6685" data-name="Path 6685" d="M697.953,213.108a89.827,89.827,0,0,0-16.588,11.66,91.445,91.445,0,0,0,18.341-34.778c.043-.154.086-.308.127-.462l.12-.435a89.4,89.4,0,0,1,23.781-40.169l.892-.869.629,1.074a87.41,87.41,0,0,0,12.4,16.337C730.361,186.047,716.169,203.176,697.953,213.108Z" transform="translate(-611.2 -124.061)"/>
      <path id="Path_6686" data-name="Path 6686" d="M752.562,153.845l-.12.435c-.042.154-.084.308-.127.462-.235.846-.484,1.686-.742,2.522a93.183,93.183,0,0,1-5.325-20.438l-.093-.593.488-.349a90.189,90.189,0,0,1,19.782-10.754,89.6,89.6,0,0,0-13.863,28.714Z" transform="translate(-623.891 -119.571)"/>
      <path id="Path_6687" data-name="Path 6687" d="M640.945,264.692a80.888,80.888,0,0,0,14.7-10.317,89.377,89.377,0,0,0,30.07,139.257l.407.188.406-.183a85.745,85.745,0,0,1,21.2-6.436,61.251,61.251,0,0,0-12.666,8.6l-1.3,1.125,1.632.539c1.409.466,2.818.895,4.187,1.275a90.244,90.244,0,0,0,24.722,3.308c37.956-.243,76.207,8.532,113.689,26.081a127.713,127.713,0,0,0,19.933,7.367,125.665,125.665,0,0,0,89.341-8.381A126.354,126.354,0,0,1,818,466.25a127.721,127.721,0,0,1-19.933-7.367c-37.483-17.549-75.734-26.325-113.689-26.082a90.243,90.243,0,0,1-24.722-3.308c-1.37-.38-2.779-.809-4.187-1.275l-1.632-.539,1.3-1.124a61.244,61.244,0,0,1,12.666-8.6,85.744,85.744,0,0,0-21.2,6.436l-.406.183-.407-.188a89.42,89.42,0,0,1-4.85-159.7Z" transform="translate(-594.109 -144.886)"/>
    </g>
  </g>
</svg>
