<svg id="Group_9871" data-name="Group 9871" xmlns="http://www.w3.org/2000/svg" width="26.256" height="26.255" viewBox="0 0 26.256 26.255">
  <path id="Path_2920" data-name="Path 2920" d="M23.317,23.316a1.641,1.641,0,0,1,2.322,0l6.317,6.317a1.641,1.641,0,0,1-2.32,2.322l-6.317-6.317a1.641,1.641,0,0,1,0-2.322Z" transform="translate(-6.182 -6.181)" fill="#14395b" fill-rule="evenodd"/>
  <path id="Path_2921" data-name="Path 2921" d="M10.666,19.691a9.025,9.025,0,1,0-9.025-9.025A9.025,9.025,0,0,0,10.666,19.691Zm10.666-9.025A10.666,10.666,0,1,1,10.666,0,10.666,10.666,0,0,1,21.332,10.666Z" fill="#14395b" fill-rule="evenodd"/>
</svg>
